<?xml version="1.0" encoding="iso-8859-1"?>
<!-- Generator: Adobe Illustrator 19.0.0, SVG Export Plug-In . SVG Version: 6.00 Build 0)  -->
<svg version="1.1" id="Capa_1" xmlns="http://www.w3.org/2000/svg" xmlns:xlink="http://www.w3.org/1999/xlink" x="0px" y="0px"
	 viewBox="0 0 512 512" style="enable-background:new 0 0 512 512;" xml:space="preserve">
<g>
	<g>
		<path d="M386,222v-92C386,58.318,327.683,0,256,0c-71.682,0-130,58.318-130,130v92H76v290h360V222H386z M156,130
			c0-55.14,44.86-100,100-100c55.141,0,100,44.86,100,100v92H156V130z M406,482H106V252h300V482z"/>
	</g>
</g>
<g>
	<g>
		<path d="M256,288c-24.813,0-45,20.187-45,45c0,19.555,12.541,36.228,30,42.42V437h30v-61.58c17.459-6.192,30-22.865,30-42.42
			C301,308.187,280.813,288,256,288z M256,348c-8.271,0-15-6.729-15-15s6.729-15,15-15s15,6.729,15,15S264.271,348,256,348z"/>
	</g>
</g>
<g>
</g>
<g>
</g>
<g>
</g>
<g>
</g>
<g>
</g>
<g>
</g>
<g>
</g>
<g>
</g>
<g>
</g>
<g>
</g>
<g>
</g>
<g>
</g>
<g>
</g>
<g>
</g>
<g>
</g>
</svg>
